PathFileType	4	(X/Y/Z)	D:\TRACE\v60_Jaco2_6-2-23\JustBodyDRS_Motion1_3-v60.trc
DataRate	CameraRate	NumFrames	NumMarkers	Units	OrigDataRate	OrigDataStartFrame	OrigNumFrames
100.00	100.00	      35	9	mm	100.00	862	      6892
Frame#	Time	front left toe			Front right toe			aft left toe			aft right toe			Arm			FL body			FR body			AL Body			AR Body			
		X1	Y1	Z1	X2	Y2	Z2	X3	Y3	Z3	X4	Y4	Z4	X5	Y5	Z5	X6	Y6	Z6	X7	Y7	Z7	X8	Y8	Z8	X9	Y9	Z9	

862	8.610	-284.66245	26.56860	-182.70831	110.98038	109.22422	-174.05623	-249.54074	77.55685	459.48508	100.54716	1.90351	440.51352	-186.75359	1222.02148	-282.60196	-161.33351	591.30359	-311.83279	-0.90899	591.18909	-313.65848	-150.15421	536.62866	633.05573	6.25900	530.87866	631.53162	
863	8.620	-283.62848	26.26828	-182.83087	111.78020	121.35417	-176.42546	-251.58759	89.52081	456.62180	101.80971	2.05236	440.52597	-185.61725	1221.54211	-282.73611	-160.74191	591.26013	-311.98419	-0.58370	591.22681	-313.96667	-149.69740	536.32294	632.61963	7.16239	530.45715	631.07288	
864	8.630	-283.16211	26.37036	-182.75941	111.97385	133.03192	-178.27496	-252.94514	101.05645	453.57397	102.26545	2.11592	440.36880	-187.43324	1220.82178	-281.99319	-160.36989	591.18866	-312.13879	-0.12984	591.30792	-314.06509	-149.25391	535.76587	632.31934	7.72001	530.03009	630.85059	
865	8.640	-282.29465	26.34831	-182.74675	113.39689	143.88095	-179.89212	-252.64648	111.08606	451.24615	103.25259	2.43339	440.28046	-186.11674	1221.23572	-281.70084	-159.89908	591.06134	-312.20255	0.36365	591.38251	-314.17349	-148.46150	535.07916	632.52112	8.10865	529.69971	630.71149	
866	8.650	-281.31372	26.06108	-183.09547	114.65993	152.74448	-180.84502	-252.75179	118.86781	449.60779	104.20616	2.77868	440.34717	-185.78004	1222.23499	-282.00558	-159.32202	590.77191	-312.17145	0.88879	591.10333	-314.18777	-147.64690	535.01007	632.63013	8.54776	529.52930	630.75464	
867	8.660	-280.88965	25.98122	-183.14088	115.49738	157.29477	-181.19943	-252.74626	123.98772	448.41324	104.97412	2.89944	440.38251	-186.11514	1222.25854	-281.21448	-158.98373	590.43610	-312.09064	1.49896	590.91095	-314.03876	-147.18716	534.84955	632.75323	9.28488	529.73340	630.80664	
868	8.670	-279.99887	25.72334	-182.95256	116.50504	159.79663	-181.05434	-253.97462	126.40814	448.42035	105.75621	2.98816	440.31757	-187.03470	1221.15186	-280.81119	-158.70352	590.20178	-311.91882	1.81152	590.82703	-313.77710	-146.76416	534.85162	632.84009	10.15918	529.57922	631.20367	
869	8.680	-278.80405	25.49681	-182.95197	117.67862	159.75685	-179.96765	-255.13120	126.56403	448.17209	106.96303	2.97399	440.24164	-186.29854	1220.68262	-280.51813	-158.18283	590.23010	-311.42603	2.34844	590.94873	-313.41473	-145.86571	534.61890	633.19928	10.53304	529.41760	631.51520	
870	8.690	-278.15283	25.48647	-182.96466	118.03918	156.82326	-179.19629	-256.87936	124.54749	448.70459	107.83694	3.18582	440.14557	-184.98758	1220.50684	-280.74237	-157.76051	590.28760	-310.94250	2.71220	590.98468	-313.07693	-144.68423	534.74823	633.56885	11.99623	529.71515	631.67627	
871	8.700	-277.32651	25.54833	-182.86298	118.01763	152.28708	-177.83157	-257.81219	121.35685	449.50195	108.39265	3.31388	440.04950	-185.18063	1220.43799	-280.62775	-157.40509	590.27045	-310.40851	3.10923	590.98651	-312.84348	-143.93172	534.87305	634.05786	12.87754	529.93976	632.15765	
872	8.710	-276.50400	25.34637	-183.04294	115.70216	146.17979	-177.29449	-258.50082	116.94538	450.25836	109.84784	3.73542	440.11002	-185.75316	1220.47327	-280.08496	-156.87709	590.14905	-310.09073	3.73012	590.86511	-312.25076	-143.21031	535.15308	634.56354	13.41631	530.14832	632.69019	
873	8.720	-275.45810	25.02056	-183.17589	114.81551	139.24463	-176.80881	-259.74994	111.43590	451.01920	110.31984	3.92094	439.97885	-186.09691	1220.57861	-279.52313	-156.19937	589.86414	-309.65366	4.19861	590.78589	-311.92001	-142.44485	535.22815	635.00769	14.22200	530.21167	633.10303	
874	8.730	-274.70621	24.92979	-182.99213	115.28883	131.66409	-176.06894	-260.65952	104.58622	451.75073	111.00780	4.00881	440.07782	-186.67903	1220.43616	-279.32126	-155.72295	589.61249	-309.00827	4.66471	590.72382	-311.35278	-141.75343	535.25665	635.46338	15.23946	530.40198	633.52856	
875	8.740	-273.80127	24.95174	-183.00745	114.88715	123.23894	-176.09973	-261.82880	97.26442	452.38147	112.53579	4.33343	440.07687	-185.72261	1220.13574	-278.21799	-155.38304	589.70123	-308.41855	5.03876	590.74323	-310.87704	-140.96056	535.23425	635.99225	15.69866	530.40894	633.99310	
876	8.750	-272.95676	24.88101	-183.03360	114.47532	113.86533	-175.99155	-263.01511	88.42005	452.98734	112.83348	4.34253	440.03088	-184.88199	1220.12061	-277.86743	-154.90303	589.72693	-308.08395	5.23251	590.87610	-310.34543	-139.82707	535.09790	636.58521	16.55105	530.38647	634.58521	
877	8.760	-272.38824	24.84964	-182.99214	114.03005	104.01845	-175.57185	-264.52640	78.64368	453.43878	114.22217	4.54522	440.08459	-184.31891	1220.10706	-277.77225	-154.53317	589.55060	-307.47235	5.24396	590.77350	-309.85767	-139.14902	534.94824	637.02234	17.45900	530.34491	634.91193	
878	8.770	-271.11203	24.52891	-183.23270	113.38095	94.18056	-175.09134	-264.99365	68.19704	453.65790	115.29597	4.56900	440.07025	-183.42273	1220.10376	-276.92807	-154.22638	589.40131	-306.92340	5.73123	590.59674	-309.08621	-138.44302	534.78076	637.64612	18.13913	530.27222	635.42462	
879	8.780	-270.18518	24.16729	-183.16924	112.88514	84.36884	-174.46864	-265.37192	58.79741	453.91171	115.63686	4.47615	439.89847	-183.34332	1220.11609	-276.45297	-153.55675	589.15381	-306.44968	6.16104	590.45795	-308.52936	-137.59183	534.43170	638.43280	18.90406	530.32526	635.97406	
880	8.790	-269.50174	24.31952	-183.15587	112.63070	74.59989	-173.58231	-265.25308	49.71741	453.94269	116.98608	4.94206	439.84576	-183.46834	1220.03625	-275.93143	-153.07159	588.99402	-305.81400	6.51660	590.32959	-308.23129	-137.27843	534.44385	638.79938	19.46590	530.36444	636.48639	
881	8.800	-268.37708	24.14563	-183.31027	112.73415	65.33694	-172.78676	-265.28821	41.59653	454.29214	117.83173	5.07000	439.70087	-183.19405	1219.79675	-274.90240	-152.85262	589.01331	-305.33749	7.48201	590.29285	-307.97595	-136.21103	534.59204	639.30103	20.23222	530.25397	636.76392	
882	8.810	-267.83432	24.09014	-183.35576	113.08627	56.48261	-171.72743	-264.21906	32.20839	455.55341	118.57557	5.39787	439.65057	-182.88028	1219.76978	-274.47845	-152.50237	589.01337	-304.80029	7.94994	590.22803	-307.42752	-135.79733	534.53064	639.70142	20.68454	530.08112	637.45258	
883	8.820	-266.81531	24.10545	-183.22681	113.77574	48.25426	-170.57260	-263.76324	24.38557	456.60568	119.81815	5.79693	439.69916	-182.55133	1219.55066	-274.78436	-152.01161	588.78467	-304.19412	8.30882	590.08472	-306.94031	-135.31653	534.45123	640.47565	20.91620	530.13885	638.07953	
884	8.830	-265.40240	23.46668	-183.51590	114.77095	41.40840	-169.30211	-262.74255	17.30874	457.84903	120.54636	5.97098	439.58331	-181.67540	1219.32678	-274.38281	-151.75481	588.59491	-303.90848	8.69882	589.85193	-306.43912	-135.11192	534.81750	640.87982	21.19512	530.00586	638.43524	
885	8.840	-264.85220	23.36408	-183.45633	115.52808	35.21929	-168.54434	-261.91229	11.31766	458.69083	121.17843	6.28307	439.48831	-181.03029	1219.01904	-273.94888	-151.35266	588.33423	-303.23975	8.68670	589.56781	-305.85721	-134.42633	534.58008	641.52606	21.87516	530.12811	638.76611	
886	8.850	-264.06500	23.22796	-183.47276	116.45937	29.10457	-167.39433	-261.24945	10.13622	457.03619	122.46731	6.74869	439.50146	-181.36269	1218.92444	-273.89444	-151.04462	588.22333	-302.67578	8.87510	589.37079	-305.22717	-134.15274	534.82733	641.83386	22.45347	530.23376	639.43750	
887	8.860	-263.05109	22.93902	-183.62947	117.10106	23.43932	-167.34299	-261.41840	7.89706	457.25275	123.19075	6.95146	439.39209	-180.77094	1218.72083	-273.04324	-150.88463	588.07623	-302.13235	9.25769	588.97333	-304.76764	-133.14091	535.62970	642.25739	23.35429	531.17572	639.93359	
888	8.870	-262.23090	22.71255	-183.58507	118.59235	21.21475	-168.12193	-260.78720	8.16892	458.01733	123.62099	7.20080	439.37961	-181.07611	1218.49524	-272.77765	-150.75891	587.69775	-301.69043	9.84477	588.65308	-304.58926	-132.59229	536.85315	643.12213	23.66578	531.99329	640.47528	
889	8.880	-261.37320	23.06611	-183.11444	120.13036	20.88103	-169.34749	-259.19882	8.57238	458.01117	124.68101	7.99007	439.68112	-180.53305	1218.42053	-273.10199	-150.33835	587.91766	-300.87103	10.28648	589.12885	-303.81488	-132.11787	537.93658	643.69934	24.57574	533.14478	641.42279	
890	8.890	-259.74796	24.54347	-183.83371	120.82520	20.59431	-168.29123	-258.03836	8.09686	458.38776	125.92763	9.48204	439.22134	-180.08264	1219.25952	-273.64722	-149.97647	589.04852	-300.43295	10.27882	590.77222	-303.26245	-131.54089	538.19415	644.32697	25.13893	533.48926	641.76147	
891	8.900	-255.59969	28.06746	-182.43379	120.90948	20.86818	-168.51591	-257.52826	7.72783	458.18201	125.88625	11.89471	440.93320	-179.15561	1220.50964	-273.87393	-149.56445	590.52344	-300.04608	10.88334	591.85565	-303.01862	-130.63004	537.88080	644.39203	26.08011	533.12042	641.72467	
892	8.910	-251.29799	31.73758	-177.85701	121.57664	21.12893	-169.11554	-256.72800	7.73462	457.75299	123.79041	14.79314	444.18076	-178.85796	1221.60950	-272.53864	-148.84775	591.76965	-300.08832	10.90718	592.97534	-303.00519	-129.94493	537.78418	644.31067	26.46739	532.82556	641.72363	
893	8.920	-248.43846	40.51492	-176.23383	122.91788	20.71202	-169.42943	-255.47853	8.09858	457.62018	120.72075	23.09692	445.40234	-179.50330	1222.75659	-270.96494	-148.17001	592.03589	-300.21661	12.08658	593.45569	-302.72577	-129.61343	537.49640	644.32391	26.81798	533.18024	641.60046	
894	8.930	-246.93045	49.20968	-175.56265	123.93813	20.12030	-169.16486	-254.37482	8.01143	457.61765	119.84648	32.58479	446.07425	-179.74225	1223.27258	-268.83939	-147.10660	591.71289	-300.30359	12.92682	593.53436	-302.58792	-129.56740	537.84332	644.22852	27.12752	533.56726	641.87415	
895	8.940	-245.33353	60.98590	-176.50479	125.07878	19.76139	-169.40839	-253.67900	8.13671	457.57645	120.57241	44.43308	445.42535	-180.28343	1223.58740	-268.00745	-146.06593	591.39539	-300.13074	13.93241	593.37042	-302.44788	-129.21898	537.85510	644.38617	27.47671	533.67773	642.31512	
896	8.950	-245.54593	73.17435	-177.46629	126.05073	20.03057	-168.94055	-253.01929	8.21997	457.49429	123.08188	56.29867	445.36966	-179.66606	1223.30005	-268.21436	-144.84946	591.27832	-299.90048	15.71903	593.24042	-302.33069	-128.70755	537.46613	644.78253	27.73896	533.34821	642.56738	
